HIERARCHY
ROOT Hips
{
	OFFSET -0.001795 -0.223333 0.028219
	CHANNELS 6 Xposition Yposition Zposition Zrotation Yrotation Xrotation 
	JOINT LeftUpLeg
	{
		OFFSET 0.069520 -0.091406 -0.006815
		CHANNELS 3 Zrotation Yrotation Xrotation
		JOINT LeftLeg
		{
			OFFSET 0.034277 -0.375199 -0.004496
			CHANNELS 3 Zrotation Yrotation Xrotation
			JOINT LeftFoot
			{
				OFFSET -0.013596 -0.397961 -0.043693
				CHANNELS 3 Zrotation Yrotation Xrotation
				JOINT LeftToe
				{
					OFFSET 0.026358 -0.055791 0.119288
					CHANNELS 3 Zrotation Yrotation Xrotation
					End Site
					{
						OFFSET 0.000000 0.000000 0.000000
					}
				}
			}
		}
	}
	JOINT RightUpLeg
	{
		OFFSET -0.067670 -0.090522 -0.004320
		CHANNELS 3 Zrotation Yrotation Xrotation
		JOINT RightLeg
		{
			OFFSET -0.038290 -0.382569 -0.008850
			CHANNELS 3 Zrotation Yrotation Xrotation
			JOINT RightFoot
			{
				OFFSET 0.015774 -0.398415 -0.042312
				CHANNELS 3 Zrotation Yrotation Xrotation
				JOINT RightToe
				{
					OFFSET -0.025372 -0.048144 0.123348
					CHANNELS 3 Zrotation Yrotation Xrotation
					End Site
					{
						OFFSET 0.000000 0.000000 0.000000
					}
				}
			}
		}
	}
	JOINT Spine
	{
		OFFSET -0.002533 0.108963 -0.026696
		CHANNELS 3 Zrotation Yrotation Xrotation
		JOINT Spine1
		{
			OFFSET 0.005487 0.135180 0.001092
			CHANNELS 3 Zrotation Yrotation Xrotation
			JOINT Spine2
			{
				OFFSET 0.001457 0.052922 0.025425
				CHANNELS 3 Zrotation Yrotation Xrotation
				JOINT Neck
				{
					OFFSET -0.002778 0.213870 -0.042857
					CHANNELS 3 Zrotation Yrotation Xrotation
					JOINT Head
					{
						OFFSET 0.005152 0.064970 0.051349
						CHANNELS 3 Zrotation Yrotation Xrotation
						End Site
						{
							OFFSET 0.000000 0.000000 0.000000
						}
					}
				}
				JOINT LeftShoulder
				{
					OFFSET 0.078845 0.121749 -0.034090
					CHANNELS 3 Zrotation Yrotation Xrotation
					JOINT LeftArm
					{
						OFFSET 0.090977 0.030469 -0.008868
						CHANNELS 3 Zrotation Yrotation Xrotation
						JOINT LeftForeArm
						{
							OFFSET 0.259612 -0.012772 -0.027456
							CHANNELS 3 Zrotation Yrotation Xrotation
							JOINT LeftHand
							{
								OFFSET 0.249234 0.008986 -0.001171
								CHANNELS 3 Zrotation Yrotation Xrotation
								End Site
								{
									OFFSET 0.000000 0.000000 0.000000
								}
							}
						}
					}
				}
				JOINT RightShoulder
				{
					OFFSET -0.081759 0.118833 -0.038615
					CHANNELS 3 Zrotation Yrotation Xrotation
					JOINT RightArm
					{
						OFFSET -0.096012 0.032551 -0.009143
						CHANNELS 3 Zrotation Yrotation Xrotation
						JOINT RightForeArm
						{
							OFFSET -0.253742 -0.013329 -0.021401
							CHANNELS 3 Zrotation Yrotation Xrotation
							JOINT RightHand
							{
								OFFSET -0.255298 0.007772 -0.005559
								CHANNELS 3 Zrotation Yrotation Xrotation
								End Site
								{
									OFFSET 0.000000 0.000000 0.000000
								}
							}
						}
					}
				}
			}
		}
	}
}
MOTION
Frames: 6
Frame Time: 0.050000
0.000000 0.952788 0.000000 -0.879989 0.636147 -0.705040 4.373933 0.210344 5.061139 -3.190287 0.394809 -8.955638 -1.827106 1.533641 11.531352 0.000000 0.000000 0.000000 -2.390763 -0.157079 2.562536 1.726877 -0.191929 -0.231815 -2.551654 -9.554093 11.121004 0.000000 0.000000 0.000000 -0.660297 -0.256177 7.321933 5.274648 -0.714278 -23.416868 -0.966431 0.446676 26.834244 0.493945 1.378601 -25.200491 0.000000 0.000000 0.000000 -30.395398 0.171187 -2.497583 -43.501999 -4.817447 -5.498994 -13.570146 -26.364112 4.433637 0.000000 0.000000 0.000000 21.999355 5.184271 2.041311 48.202199 6.634143 -4.543274 9.479262 32.068897 4.096105 0.000000 0.000000 0.000000 
-0.000683 0.951765 0.000183 -0.949208 0.010658 -0.152130 4.453017 0.206221 4.981785 -3.200216 0.406577 -9.706008 -1.510805 1.992457 11.555299 0.000000 0.000000 0.000000 -2.451068 -0.065822 1.538222 1.671283 -0.170021 0.308972 -2.031270 -8.565389 10.881152 0.000000 0.000000 0.000000 -0.412860 -0.253774 6.855355 4.877112 -0.614477 -23.524002 -1.147699 0.431794 27.000589 0.395448 1.385586 -25.448517 0.000000 0.000000 0.000000 -30.281836 0.661284 -2.640330 -43.769736 -5.035172 -5.520390 -12.974094 -26.729062 4.388144 0.000000 0.000000 0.000000 21.799532 5.453775 2.074982 48.870085 5.221661 -5.104451 9.564775 33.890406 4.382964 0.000000 0.000000 0.000000 
-0.001072 0.951272 0.000298 -0.726456 -0.071466 0.296026 4.379045 0.152301 3.934653 -3.472025 0.410585 -8.695935 -1.347268 2.113891 11.186467 0.000000 0.000000 0.000000 -2.615591 -0.037111 1.287367 1.385529 -0.160903 -0.512806 -1.863717 -8.432690 11.583019 0.000000 0.000000 0.000000 -0.086240 -0.277430 6.909257 4.604071 -0.552143 -23.423504 -1.293266 0.069645 27.058584 -0.174704 1.692972 -26.327673 0.000000 0.000000 0.000000 -30.120688 0.044232 -2.022687 -43.344703 -5.528523 -5.365924 -13.877343 -26.286891 4.532183 0.000000 0.000000 0.000000 21.941997 5.482597 1.961828 48.928417 5.328415 -5.030588 8.945619 34.187057 4.217449 0.000000 0.000000 0.000000 
-0.001400 0.950879 0.000662 -0.575513 -0.008936 0.468554 4.351425 0.134669 3.620007 -3.674258 0.416130 -8.449132 -1.343793 2.080758 11.068785 0.000000 0.000000 0.000000 -2.965412 0.011078 0.815622 1.767124 -0.186041 0.054388 -1.956976 -8.535054 11.320041 0.000000 0.000000 0.000000 -0.273056 -0.269013 7.039638 4.785876 -0.591224 -23.453908 -1.471689 -0.196776 27.381652 -0.577028 1.884570 -26.317144 0.000000 0.000000 0.000000 -30.445712 0.136853 -2.016555 -42.819565 -5.833713 -5.256762 -14.999265 -27.501475 5.048872 0.000000 0.000000 0.000000 21.430492 6.240971 2.349824 48.648672 4.699603 -5.259776 10.458736 35.773531 4.897845 0.000000 0.000000 0.000000 
-0.001715 0.950879 0.001285 -0.477778 0.197299 0.635444 4.278762 0.105974 3.100313 -3.674899 0.412732 -7.836914 -1.380803 1.973268 10.889760 0.000000 0.000000 0.000000 -2.895854 0.001623 0.910148 1.526496 -0.170616 -0.316310 -2.052942 -8.703915 11.363389 0.000000 0.000000 0.000000 -0.197868 -0.299686 7.673467 5.183680 -0.744161 -22.614104 -1.939920 0.006678 26.485073 -0.677111 1.969177 -25.435601 0.000000 0.000000 0.000000 -29.871478 -0.293000 -1.854343 -42.726463 -5.688061 -5.163568 -17.334221 -29.693578 6.094095 0.000000 0.000000 0.000000 21.177948 5.885610 2.210620 48.183529 4.136286 -5.339924 12.410015 37.905326 5.903280 0.000000 0.000000 0.000000 
-0.001991 0.950999 0.002469 -0.466330 0.121372 1.071039 4.422865 0.073570 2.660189 -3.930398 0.423483 -7.752008 -1.335741 2.057044 10.943013 0.000000 0.000000 0.000000 -3.049006 0.034378 0.580989 1.801100 -0.202087 -0.468171 -2.012656 -8.652650 11.438662 0.000000 0.000000 0.000000 -0.310452 -0.290576 7.671720 5.240366 -0.742364 -22.821329 -1.634147 -0.049134 27.232789 -0.864965 2.079272 -25.971118 0.000000 0.000000 0.000000 -29.625758 -0.470592 -1.626624 -42.849846 -6.112563 -5.126529 -19.506507 -32.473961 7.409615 0.000000 0.000000 0.000000 20.485279 6.122257 2.342821 47.967032 3.495314 -5.620753 14.983944 40.671957 7.358450 0.000000 0.000000 0.000000 
